<?xml version="1.0" encoding="UTF-8" standalone="no"?>
<svg
   version="1.0"
   width="286.000000pt"
   height="286.000000pt"
   viewBox="0 0 286.000000 286.000000"
   preserveAspectRatio="xMidYMid meet"
   id="svg38"
   sodipodi:docname="3.svg"
   inkscape:version="1.1 (c68e22c387, 2021-05-23)"
   xmlns:inkscape="http://www.inkscape.org/namespaces/inkscape"
   xmlns:sodipodi="http://sodipodi.sourceforge.net/DTD/sodipodi-0.dtd"
   xmlns="http://www.w3.org/2000/svg"
   xmlns:svg="http://www.w3.org/2000/svg">
  <defs
     id="defs42" />
  <sodipodi:namedview
     id="namedview40"
     pagecolor="#ffffff"
     bordercolor="#666666"
     borderopacity="1.0"
     inkscape:pageshadow="2"
     inkscape:pageopacity="0.0"
     inkscape:pagecheckerboard="0"
     inkscape:document-units="pt"
     showgrid="false"
     inkscape:zoom="1.3962887"
     inkscape:cx="309.39161"
     inkscape:cy="274.29858"
     inkscape:window-width="2160"
     inkscape:window-height="1346"
     inkscape:window-x="-11"
     inkscape:window-y="-11"
     inkscape:window-maximized="1"
     inkscape:current-layer="g36" />
  <metadata
     id="metadata2">
Created by potrace 1.16, written by Peter Selinger 2001-2019
</metadata>
  <g
     transform="translate(0.000000,286.000000) scale(0.100000,-0.100000)"
     fill="#000000"
     stroke="none"
     id="g36">
    <path
       d="m 423,2718 c -53,-83 -62,-111 -79,-259 -20,-177 -14,-541 9,-508 2,2 0,74 -3,159 -3,85 -2,196 3,245 5,50 11,115 12,145 3,67 19,127 41,159 14,19 23,22 55,18 55,-7 143,-51 184,-90 19,-19 35,-38 35,-42 0,-4 10,-17 23,-29 12,-12 33,-37 47,-56 14,-19 43,-54 64,-77 27,-31 39,-53 41,-77 1,-24 -2,-33 -12,-29 -7,3 -13,-2 -13,-11 0,-9 -7,-16 -15,-16 -8,0 -15,-7 -15,-16 0,-8 -5,-12 -10,-9 -6,4 -15,-7 -21,-24 -6,-17 -15,-31 -20,-31 -5,0 -9,-9 -9,-19 0,-11 -5,-23 -10,-26 -6,-4 -8,-15 -5,-26 4,-10 2,-19 -4,-19 -7,0 -7,-8 0,-27 8,-22 7,-30 -7,-40 -10,-7 -25,-13 -33,-13 -12,0 -12,-3 -3,-12 17,-17 15,-38 -3,-38 -8,0 -15,6 -15,13 0,7 -17,30 -38,50 0,0 -23.03453,28.2701 -40.84861,47.4449 -17.81407,19.1748 -52.33015,92.4581 -64.03187,69.1965 C 495.68023,2087.0227 531,1968 545,1926 c 17,-50 11,-76 -16,-76 -17,0 -18,-3 -9,-21 9,-17 7,-26 -14,-54 -28,-37 -31,-45 -16,-45 6,0 13,8 17,18 6,17 23,38 55,70 10,9 18,22 18,30 0,7 7,15 16,19 9,3 14,13 11,24 -6,22 8,28 51,22 35,-6 39,-14 17,-37 -8,-8 -15,-19 -15,-25 0,-6 -6,-11 -13,-11 -6,0 -18,-14 -26,-31 -7,-17 -23,-34 -35,-39 -11,-5 -17,-9 -12,-9 17,-2 -27,-41 -46,-41 -18,0 -25,-20 -11,-34 4,-3 8,-14 9,-22 1,-9 0,-13 -3,-10 -3,3 -17,-4 -31,-14 -85.84885,9.4092 -37.13924,-46.2499 -115,-50 -19,0 -28,11 -19,24 4,6 5,40 2,76 -5,65 -5,65 -14,-42 -8,-99 -7,-110 13,-148 26,-49 28,-147 6,-230 -8,-30 -15,-98 -15,-151 0,-52 -4,-99 -9,-105 -5,-5 -11,-25 -13,-44 -2,-29 -8,-36 -28,-38 -14,-2 -29,-8 -35,-13 -5,-5 -19,-9 -32,-9 -13,0 -23,-4 -23,-10 0,-5 -13,-10 -30,-10 -16,0 -30,-3 -30,-8 0,-4 -22,-17 -50,-30 C 73,840 48,825 45,820 42,814 30,810 19,810 9.5,810 0,803.45352 0,803.45352 V 339.23108 c 0,0 56.432123,0.12121 87,-5.23108 30.56788,-5.35229 83,-20 95,-28 33,-24 42,-20 74,27 38,57 52,67 95,67 21,0 42,7 49,16 10,11 30,15 74,14 90,-3 118,9 134,55 11,32 10,40 -3,55 -8,9 -15,26 -15,39 0,12 -7,24 -15,27 -10,4 -12,11 -6,22 9,16 -20,71 -62,117 -10,10 -15,25 -13,32 3,7 0,13 -5,13 -7,0 -9,9 -6,22 8,28 -58,118 -86,118 -10,0 -15,5 -12,11 4,5 0,18 -8,27 -12,14 -13,39 -6,152 4,74 11,146 14,160 3,14 10,43 15,65 27,123 35,151 45,158 5,4 -1,6 -15,5 -39,-4 -31,24 10,34 19,5 43,18 52,30 13,14 25,18 41,14 34,-8 78,31 79,72 1,34 12,50 23,33 3,-6 15,-7 28,-2 15,6 32,2 55,-10 18,-11 52,-19 78,-19 44,0 46,-1 40,-25 -7,-28 5,-33 28,-10 13,13 15,13 18,-3 4,-14 12,-9 46,26 23,24 42,49 42,57 0,18 16,20 23,3 4,-10 8,-9 16,2 8,12 11,12 11,1 0,-11 3,-11 15,-1 12,10 17,7 27,-16 7,-16 17,-32 22,-36 6,-4 5,-17 -2,-34 -15,-32 -10,-39 16,-25 12,6 25,30 33,60 7,28 16,48 21,45 12,-8 17,57 7,97 -4,14 -2,34 4,45 13,21 10,133 -3,149 -8,10 -3,41 15,102 4,12 16,25 26,28 11,4 33,18 49,32 31,26 48.4717,24.9144 62.5002,20.3286 0,0 24.4998,-14.3286 18.4998,-20.3286 -6,-6 -11,-23 -11,-38 0,-15 -24,-76 -54,-135 -54,-109 -54,-109 -61,-229 -4,-66 -11,-130 -16,-143 -12,-30 -12,-29 11,-35 11,-3 19,-11 18,-18 -2,-8 7,-15 20,-17 12,-2 26,-12 32,-22 5,-9 16,-20 24,-23 11,-4 14,2 11,30 -2,28 2,37 17,41 16,4 18,11 14,41 -9,51 5,70 33,42 11,-11 27,-21 34,-20 6,0 2,5 -10,11 -28,14 -30,38 -3,38 26,0 26,15 0,33 -17,12 -19,19 -11,40 8,19 15,25 28,21 11,-4 14,-3 7,3 -24,17 -64,87 -64,109 0,79 56,172 118,195 36,14 96,2 118,-24 11,-12 28,-51 38,-87 10,-36 22,-72 27,-80 5,-8 16,-28 25,-45 9,-16 42,-56 75,-87 77,-76 102,-123 88,-172 -6,-20 -7,-45 -4,-56 7,-21 53,-40 99,-40 34,0 106,-51 106,-74 0,-19 40,-67 50,-61 24,15 160,-95 160,-129 0,-8 4,-18 10,-21 6,-3 10,-15 10,-26 0,-10 5,-19 10,-19 14,0 12,-27 -2,-37 -7,-4 -14,-26 -15,-48 -5,-121 -12,-178 -22,-188 -6,-6 -11,-18 -11,-27 0,-14 -54,-70 -69,-70 -12,-1 -71,-79 -71,-94 0,-9 -18,-29 -39,-44 -25,-17 -41,-36 -43,-52 -2,-19 -8,-24 -25,-22 -14,2 -26,-4 -33,-17 -6,-12 -21,-21 -35,-21 -15,0 -26,-7 -30,-21 -5,-16 -10,-18 -21,-8 -11,9 -18,6 -34,-12 -10,-13 -19,-28 -20,-33 0,-4 -12,-5 -26,-2 -25,7 -26,5 -21,-23 6,-27 4,-31 -16,-31 -13,0 -32,-6 -43,-14 -18,-14 -18,-15 -1,-21 11,-5 16,-14 12,-25 -4,-13 6,-27 32,-49 32,-27 45,-31 95,-31 36,0 86,10 133,26 89,31 122,27 78,-10 -15,-13 -44,-32 -63,-42 -62,-34 -87,-54 -98,-79 -8,-17 -22,-26 -49,-30 -47,-8 -123,-37 -123,-47 0,-5 -6,-8 -14,-8 -22,0 -27,-15 -17,-43 9,-24 12,-25 53,-16 68,15 99,28 230,96 15,8 30,18 33,24 4,5 14,5 27,-2 16,-9 23,-7 35,10 8,12 20,21 26,21 7,0 20,9 30,20 9,11 26,20 36,20 25,0 71,21 71,32 0,4 12,8 26,8 34,0 64,17 64,36 0,11 6,14 23,8 12,-3 24,-11 25,-15 2,-5 17,-9 32,-9 48,0 65,-59 36,-123 -8,-18 -17,-44 -20,-59 -3,-14 -18,-40 -32,-57 L 2358,0 h 251 251 v 344 344 l -27,7 c -33,8 -70,32 -152,102 -35,30 -75,55 -94,58 -32,6 -34,10 -46,68 -7,34 -14,87 -16,117 -5,76 -27,123 -86,180 -41,41 -49,55 -49,85 0,20 -9,53 -20,75 -29,56 -26,78 25,178 48,95 50,102 35,102 -6,0 -9,-3 -8,-7 1,-5 -5,-21 -12,-36 -9,-19 -19,-26 -29,-22 -30,12 -34,10 -44,-23 -15,-48 -37,-37 -71,32 -23,48 -26,63 -17,78 7,11 9,34 5,59 -6,36 -4,41 15,46 17,4 21,11 17,28 -3,12 3,39 14,60 11,22 20,53 20,71 0,17 6,50 14,72 13,37 13,41 -2,45 -15,4 -15,5 1,6 13,1 17,10 17,35 0,42 -42,96 -73,95 -12,0 -31,2 -42,5 -13,4 -31,-4 -54,-24 l -34,-29 24,-9 24,-9 -35,-22 c -19,-11 -39,-21 -45,-21 -5,0 -2,-5 8,-11 14,-8 15,-14 6,-31 -9,-17 -8,-24 5,-33 21,-16 20,-32 -3,-45 -34,-18 -58,-12 -70,18 -6,15 -25,35 -41,44 -17,10 -30,25 -30,36 0,28 -26,86 -45,102 -9,7 -13,20 -10,28 3,8 1,20 -5,27 -8,10 -5,17 12,29 22,15 20,16 -35,16 -31,0 -57,-4 -57,-10 0,-5 -9,-10 -20,-10 -12,0 -32,-7 -46,-16 -22,-15 -43,-16 -162,-9 -153,9 -164,9 -244,-1 -36,-4 -76,-2 -105,6 -27,6 -96,13 -155,15 l -107,3 -47,41 c -26,23 -55,41 -65,41 -18,0 -60,50 -140,164 -64,92 -200,216 -236,216 -7,0 -13,5 -13,10 0,15 -77,12 -87,-2 z m 617,-599 c 7,-11 9,-23 6,-27 -3,-3 -6,1 -6,8 0,7 -3,11 -6,8 -3,-3 9,-26 27,-52 28,-39 31,-49 22,-68 -6,-13 -14,-47 -17,-76 -4,-37 -16,-68 -42,-110 -21,-31 -38,-58 -38,-58 -1,-1 -36,5 -79,12 -57,10 -84,11 -99,3 -11,-6 -22,-9 -24,-6 -3,3 -34,-6 -70,-18 -54,-19 -66,-20 -71,-9 -10,27 20,79 85,145 36,38 61,72 58,78 -4,6 0,11 9,11 16,0 39,45 30,59 -2,5 13,27 34,50 21,22 35,41 32,42 -20,1 71,27 101,28 28,1 40,-4 48,-20 z M 745,1970 c -3,-5 -14,-10 -23,-9 -14,0 -13,2 3,9 27,11 27,11 20,0 z M 470,1580 c -8,-5 -33.11415,-7 -35.11415,-4 -3,3 14.9777,10.6617 25.11415,14 8.96054,2.951 17,7 19,4 3,-3 -1,-9 -9,-14 z M 180,640 c 0,-11 -7,-20 -15,-20 -15,0 -21,21 -8,33 12,13 23,7 23,-13 z m 56,-35 c 1,-11 4,-38 7,-60 4,-22 4,-32 1,-22 -6,18 -19,23 -28,8 -3,-4 -1,-22 3,-39 9,-31 -6,-50 -25,-33 -5,5 -21,11 -37,15 -20,5 -29,2 -33,-9 -4,-8 -15,-15 -25,-15 -22,0 -25,15 -5,23 7,3 17,26 20,51 7,46 7,46 48,46 39,0 40,1 36,30 -4,27 -2,31 16,28 13,-2 22,-11 22,-23 z M 68,510 c 10,-17 10,-20 -3,-20 -8,0 -15,2 -15,4 0,2 -3,11 -6,20 -9,23 9,20 24,-4 z"
       id="path4"
       sodipodi:nodetypes="cccscccccscscccssscsssccsccssssczscsccsccscsccsscccsccscccccccsccccssssccscczccsccccsccccscscccsccccccccccsssccsccsscccccccccccccsscccccccccccscssccccsccssccccsscssssccsscsccccsccccccsccccscccccssccccccscssssccsccccccccccccccsccsccscccccccscscscccccccscsccscscsccssscscccccscsscccssccccccccccccscccccccccscscssscsccccccscsccsccccsscc" />
    <path
       d="M2450 2520 c0 -5 -10 -10 -23 -10 -13 0 -27 -4 -32 -9 -6 -4 -31 -14 -57 -21 -26 -7 -57 -23 -69 -36 -12 -13 -26 -21 -30 -18 -10 6 -57 -22 -80 -48 -9 -10 -19 -15 -22 -12 -3 3 -15 -4 -26 -15 -16 -16 -17 -21 -6 -21 27 0 144 61 162 84 10 12 22 23 26 23 11 1 66 22 96 36 13 7 34 10 46 9 13 -2 26 1 29 6 7 12 46 4 46 -9 0 -5 13 -9 28 -9 53 0 63 -57 37 -215 -8 -49 -16 -122 -17 -162 -1 -40 -5 -73 -10 -73 -4 0 -8 -7 -8 -15 0 -23 19 -18 24 8 11 50 20 103 22 127 1 14 11 81 22 149 22 141 17 184 -23 219 -20 17 -38 22 -81 22 -30 0 -54 -4 -54 -10z"
       id="path6" />
    <path
       d="M446 2346 c-14 -45 -1 -253 20 -316 10 -30 20 -47 22 -38 2 9 -2 34 -9 55 -7 21 -15 103 -18 183 -5 105 -9 137 -15 116z"
       id="path8" />
    <path
       d="M2051 2321 c-14 -12 -18 -22 -11 -26 5 -3 13 1 16 10 5 13 8 14 15 3 6 -9 8 -6 6 10 -2 26 1 26 -26 3z"
       id="path10" />
    <path
       d="M540 2320 c0 -9 8 -27 18 -40 9 -14 22 -36 29 -50 9 -19 12 -21 12 -7 1 18 -16 58 -29 67 -4 3 -12 14 -18 25 -8 14 -11 16 -12 5z"
       id="path12" />
    <path
       d="M1993 2292 c-24 -4 -32 -32 -10 -32 18 0 52 26 41 31 -5 3 -19 3 -31 1z"
       id="path14" />
    <path
       d="M2524 1963 c-3 -10 -10 -28 -15 -41 -9 -23 -5 -42 10 -42 8 0 31 60 31 83 0 22 -19 22 -26 0z"
       id="path18" />
    <path
       d="M346 1918 c-8 -33 -7 -148 2 -148 4 0 8 38 10 85 2 86 -1 103 -12 63z"
       id="path20" />
    <path
       d="M2504 1858 c-5 -7 -9 -15 -9 -18 -2 -17 -30 -88 -42 -107 -8 -11 -10 -23 -6 -26 5 -3 13 6 19 21 6 15 20 51 32 81 21 52 24 77 6 49z"
       id="path22" />
    <path
       d="m 1480,1733 c -8,-3 -26,-10 -39,-15 -23,-8 -23,-9 -5,-29 29,-32 110,-69 163,-76 43,-5 183,12 204,24 15,9 -100.83,74.3234 -140.83,86.3234 -44,13 -160.17,19.6766 -182.17,9.6766 z"
       id="path24"
       sodipodi:nodetypes="ccccccc" />
    <path
       d="M2436 1687 c3 -10 9 -15 12 -12 3 3 0 11 -7 18 -10 9 -11 8 -5 -6z"
       id="path26" />
    <path
       d="M1350 1505 c0 -10 29 -24 34 -17 3 6 -3 12 -14 15 -11 3 -20 4 -20 2z"
       id="path28" />
    <path
       d="m 941,1439 c -24,-12 -56,-40 -72,-62 -26,-36 -29,-49 -28,-106 1,-52 7,-76 28,-111 14,-25 31.26503,-50.8088 35.69996,-57 C 914.7285,1089 1049,980 1062,980 c 18,0 175,105 216,143 86,83 83,231 -5,278 -13,7 -18.3458,20.2134 -23,24 -13.7683,11.2019 -45,23 -170,31 -85,5 -99,3 -139,-17 z m 37,-131 c 19,-25 22,-54 6,-74 -15,-18 -15,-18 -5,3 8,15 8,30 1,48 -9,23 -15,27 -40,23 -16,-2 -27,-1 -24,4 8,12 50,9 62,-4 z m 205,-5 c -31,-6 -45,-28 -47,-72 0,-23 -4,-35 -8,-28 -11,16 1,68 20,90 8,9 25,16 36,16 20,-2 20,-2 -1,-6 z"
       id="path30"
       sodipodi:nodetypes="scccssccscsccccccccccccc" />
    <path
       d="M1015 905 c-22 -7 -67 -21 -100 -30 -59 -17 -59 -17 -39 -34 12 -10 60 -30 107 -45 77 -25 92 -27 139 -18 45 9 131 36 188 58 19 8 -49 38 -145 65 -80 22 -95 22 -150 4z"
       id="path32" />
    <path
       d="M1650 35 c0 -8 -9 -15 -19 -15 -11 0 -23 -5 -26 -10 -4 -6 8 -10 29 -10 32 0 36 3 36 25 0 14 -4 25 -10 25 -5 0 -10 -7 -10 -15z"
       id="path34" />
  </g>
</svg>
